<svg width="36" height="23" viewBox="0 0 36 23" fill="none" xmlns="http://www.w3.org/2000/svg">
<path d="M2.96892 3.08031H33.798C34.5319 3.08031 36.0001 1.20465 36.0001 0.489624C36.0001 0.489624 35.4044 0.489636 34.6705 0.489636H2.0964C1.36249 0.489636 0.766846 0.489624 0.766846 0.489624C0.766846 1.20465 2.23501 3.08031 2.96892 3.08031Z" fill="#E51937"/>
<path d="M2.96892 12.8763H33.798C34.5319 12.8763 36.0001 11.0006 36.0001 10.2856C36.0001 10.2856 35.4044 10.2856 34.6705 10.2856H2.0964C1.36249 10.2856 0.766846 10.2856 0.766846 10.2856C0.766846 11.0006 2.23501 12.8763 2.96892 12.8763Z" fill="#E51937"/>
<path d="M2.96892 22.5104H33.798C34.5319 22.5104 36.0001 20.6347 36.0001 19.9197C36.0001 19.9197 35.4044 19.9197 34.6705 19.9197H2.0964C1.36249 19.9197 0.766846 19.9197 0.766846 19.9197C0.766846 20.6347 2.23501 22.5104 2.96892 22.5104Z" fill="#E51937"/>
</svg>
