<svg width="141" height="26" viewBox="0 0 141 26" fill="none" xmlns="http://www.w3.org/2000/svg">
<path d="M13.3831 0.615723L16.1895 9.25301H25.2713L17.9239 14.5911L20.7304 23.2284L13.3831 17.8903L6.03574 23.2284L8.84217 14.5911L1.49485 9.25301H10.5766L13.3831 0.615723Z" fill="white"/>
<path d="M42.3831 0.615723L45.1895 9.25301H54.2713L46.9239 14.5911L49.7304 23.2284L42.3831 17.8903L35.0357 23.2284L37.8422 14.5911L30.4949 9.25301H39.5766L42.3831 0.615723Z" fill="white"/>
<path d="M71.3831 0.615723L74.1895 9.25301H83.2713L75.9239 14.5911L78.7304 23.2284L71.3831 17.8903L64.0357 23.2284L66.8422 14.5911L59.4949 9.25301H68.5766L71.3831 0.615723Z" fill="white"/>
<path d="M100.383 0.615723L103.189 9.25301H112.271L104.924 14.5911L107.73 23.2284L100.383 17.8903L93.0357 23.2284L95.8422 14.5911L88.4949 9.25301H97.5766L100.383 0.615723Z" fill="white"/>
<path d="M128.383 0.615723L131.189 9.25301H140.271L132.924 14.5911L135.73 23.2284L128.383 17.8903L121.036 23.2284L123.842 14.5911L116.495 9.25301H125.577L128.383 0.615723Z" fill="white"/>
</svg>
