<svg width="45" height="35" viewBox="0 0 45 35" fill="none" xmlns="http://www.w3.org/2000/svg">
<path d="M7.47967 15.9992C6.56244 16.9369 6.56244 18.4629 7.47967 19.4098C8.3969 20.3474 9.88964 20.3474 10.8159 19.4098C17.1645 12.9196 27.4968 12.9196 33.8455 19.4098C34.3041 19.8786 34.9066 20.1176 35.5091 20.1176C36.1116 20.1176 36.7141 19.8786 37.1727 19.4098C38.0899 18.4721 38.0899 16.9461 37.1727 15.9992C28.9896 7.62445 15.6628 7.62445 7.47967 15.9992Z" fill="white"/>
<path d="M13.8464 22.5078C12.9291 23.4455 12.9291 24.9715 13.8464 25.9184C14.7636 26.856 16.2563 26.856 17.1826 25.9184C20.0152 23.0134 24.6373 23.0134 27.4699 25.9184C27.9285 26.3872 28.531 26.6262 29.1335 26.6262C29.736 26.6262 30.3385 26.3872 30.7971 25.9184C31.7143 24.9807 31.7143 23.4547 30.7971 22.517C26.13 17.7275 18.5224 17.7275 13.8464 22.5078Z" fill="white"/>
<path d="M22.3261 34.3758C24.0594 34.3758 25.4645 32.9393 25.4645 31.1674C25.4645 29.3955 24.0594 27.9591 22.3261 27.9591C20.5928 27.9591 19.1877 29.3955 19.1877 31.1674C19.1877 32.9393 20.5928 34.3758 22.3261 34.3758Z" fill="white"/>
<path d="M43.6383 9.38032C31.8851 -2.62563 12.7672 -2.62563 1.01409 9.38032C0.0968647 10.318 0.0968647 11.844 1.01409 12.7909C1.93132 13.7286 3.42407 13.7286 4.35029 12.7909C14.26 2.6511 30.3924 2.6511 40.3111 12.7909C40.7697 13.2597 41.3722 13.4987 41.9747 13.4987C42.5771 13.4987 43.1796 13.2597 43.6383 12.7909C44.5555 11.8532 44.5555 10.3272 43.6383 9.38032Z" fill="white"/>
</svg>
